<mxfile host="app.diagrams.net" modified="2024-05-25T11:18:00.979Z" agent="Mozilla/5.0 (X11; Linux x86_64) AppleWebKit/537.36 (KHTML, like Gecko) Chrome/125.0.0.0 Safari/537.36" version="24.4.8" etag="UBC8wig9-VJD5Y66uSNp" type="github">
  <diagram name="Page-1" id="_mkRYKYGuCmBUvL_Da7i">
    <mxGraphModel>
      <root>
        <mxCell id="0" />
        <mxCell id="1" parent="0" />
      </root>
    </mxGraphModel>
  </diagram>
</mxfile>
